<?xml version="1.0" encoding="UTF-8" standalone="no"?>
<svg
   xmlns:dc="http://purl.org/dc/elements/1.1/"
   xmlns:cc="http://creativecommons.org/ns#"
   xmlns:rdf="http://www.w3.org/1999/02/22-rdf-syntax-ns#"
   xmlns:svg="http://www.w3.org/2000/svg"
   xmlns="http://www.w3.org/2000/svg"
   xmlns:xlink="http://www.w3.org/1999/xlink"
   id="svg8"
   version="1.1"
   viewBox="0 0 210.07916 121.70834"
   height="460"
   width="794">
  <defs
     id="defs2">
    <linearGradient
       id="linearGradient5784">
      <stop
         style="stop-color:#63de5d;stop-opacity:1;"
         offset="0"
         id="stop5780" />
      <stop
         style="stop-color:#26bd1e;stop-opacity:0.98823529"
         offset="1"
         id="stop5782" />
    </linearGradient>
    <linearGradient
       id="linearGradient5645">
      <stop
         id="stop5641"
         offset="0"
         style="stop-color:#ffbf41;stop-opacity:1" />
      <stop
         id="stop5643"
         offset="1"
         style="stop-color:#ffb118;stop-opacity:1" />
    </linearGradient>
    <linearGradient
       id="linearGradient5475">
      <stop
         id="stop5471"
         offset="0"
         style="stop-color:#ffdc98;stop-opacity:1" />
      <stop
         id="stop5473"
         offset="1"
         style="stop-color:#ffb118;stop-opacity:1" />
    </linearGradient>
    <linearGradient
       id="linearGradient5465">
      <stop
         id="stop5461"
         offset="0"
         style="stop-color:#3159a5;stop-opacity:1" />
      <stop
         id="stop5463"
         offset="1"
         style="stop-color:#203a6c;stop-opacity:1" />
    </linearGradient>
    <marker
       style="overflow:visible"
       id="marker5453"
       refX="0.0"
       refY="0.0"
       orient="auto">
      <path
         transform="scale(0.8) translate(12.5,0)"
         style="fill-rule:evenodd;stroke:#000000;stroke-width:1.0pt"
         d="M 0.0,0.0 L 5.0,-5.0 L -12.5,0.0 L 5.0,5.0 L 0.0,0.0 z "
         id="path5451" />
    </marker>
    <marker
       style="overflow:visible"
       id="marker5425"
       refX="0.0"
       refY="0.0"
       orient="auto">
      <path
         transform="scale(0.8) translate(12.5,0)"
         style="fill-rule:evenodd;stroke:#000000;stroke-width:1.0pt"
         d="M 0.0,0.0 L 5.0,-5.0 L -12.5,0.0 L 5.0,5.0 L 0.0,0.0 z "
         id="path5423" />
    </marker>
    <marker
       style="overflow:visible"
       id="Arrow1Mstart"
       refX="0.0"
       refY="0.0"
       orient="auto">
      <path
         transform="scale(0.4) translate(10,0)"
         style="fill-rule:evenodd;stroke:#000000;stroke-width:1.0pt"
         d="M 0.0,0.0 L 5.0,-5.0 L -12.5,0.0 L 5.0,5.0 L 0.0,0.0 z "
         id="path5143" />
    </marker>
    <marker
       style="overflow:visible;"
       id="Arrow1Lend"
       refX="0.0"
       refY="0.0"
       orient="auto">
      <path
         transform="scale(0.8) rotate(180) translate(12.5,0)"
         style="fill-rule:evenodd;stroke:#000000;stroke-width:1.0pt;"
         d="M 0.0,0.0 L 5.0,-5.0 L -12.5,0.0 L 5.0,5.0 L 0.0,0.0 z "
         id="path5140" />
    </marker>
    <marker
       style="overflow:visible"
       id="Arrow1Lstart"
       refX="0.0"
       refY="0.0"
       orient="auto">
      <path
         transform="scale(0.8) translate(12.5,0)"
         style="fill-rule:evenodd;stroke:#000000;stroke-width:1.0pt"
         d="M 0.0,0.0 L 5.0,-5.0 L -12.5,0.0 L 5.0,5.0 L 0.0,0.0 z "
         id="path5137" />
    </marker>
    <linearGradient
       id="linearGradient4705">
      <stop
         style="stop-color:#63de5d;stop-opacity:1;"
         offset="0"
         id="stop4701" />
      <stop
         style="stop-color:#26bd1e;stop-opacity:1"
         offset="1"
         id="stop4703" />
    </linearGradient>
    <radialGradient
       xlink:href="#linearGradient4705"
       id="radialGradient4724"
       cx="30.10708"
       cy="42.549583"
       fx="30.10708"
       fy="42.549583"
       r="12.909165"
       gradientTransform="matrix(1,0,0,0.94930025,0,2.1572533)"
       gradientUnits="userSpaceOnUse" />
    <radialGradient
       xlink:href="#linearGradient4705"
       id="radialGradient4732"
       cx="30.10708"
       cy="42.549583"
       fx="30.10708"
       fy="42.549583"
       r="12.909165"
       gradientTransform="matrix(1,0,0,0.94930025,0,2.1572533)"
       gradientUnits="userSpaceOnUse" />
    <radialGradient
       xlink:href="#linearGradient4705"
       id="radialGradient4740"
       cx="30.10708"
       cy="42.549583"
       fx="30.10708"
       fy="42.549583"
       r="12.909165"
       gradientTransform="matrix(1,0,0,0.94930025,0,2.1572533)"
       gradientUnits="userSpaceOnUse" />
    <radialGradient
       xlink:href="#linearGradient4705"
       id="radialGradient4748"
       cx="30.10708"
       cy="42.549583"
       fx="30.10708"
       fy="42.549583"
       r="12.909165"
       gradientTransform="matrix(1,0,0,0.94930025,0,2.1572533)"
       gradientUnits="userSpaceOnUse" />
    <radialGradient
       xlink:href="#linearGradient4705"
       id="radialGradient4756"
       cx="30.10708"
       cy="42.549583"
       fx="30.10708"
       fy="42.549583"
       r="12.909165"
       gradientTransform="matrix(1,0,0,0.94930025,0,2.1572533)"
       gradientUnits="userSpaceOnUse" />
    <radialGradient
       xlink:href="#linearGradient4705"
       id="radialGradient4764"
       cx="30.10708"
       cy="42.549583"
       fx="30.10708"
       fy="42.549583"
       r="12.909165"
       gradientTransform="matrix(1,0,0,0.94930025,0,2.1572533)"
       gradientUnits="userSpaceOnUse" />
    <radialGradient
       xlink:href="#linearGradient4705"
       id="radialGradient4724-9"
       cx="30.10708"
       cy="42.549583"
       fx="30.10708"
       fy="42.549583"
       r="12.909165"
       gradientTransform="matrix(1,0,0,0.94930025,0,2.1572533)"
       gradientUnits="userSpaceOnUse" />
    <radialGradient
       xlink:href="#linearGradient4705"
       id="radialGradient4732-2"
       cx="30.10708"
       cy="42.549583"
       fx="30.10708"
       fy="42.549583"
       r="12.909165"
       gradientTransform="matrix(1,0,0,0.94930025,0,2.1572533)"
       gradientUnits="userSpaceOnUse" />
    <radialGradient
       xlink:href="#linearGradient4705"
       id="radialGradient4740-0"
       cx="30.10708"
       cy="42.549583"
       fx="30.10708"
       fy="42.549583"
       r="12.909165"
       gradientTransform="matrix(1,0,0,0.94930025,0,2.1572533)"
       gradientUnits="userSpaceOnUse" />
    <radialGradient
       xlink:href="#linearGradient4705"
       id="radialGradient4748-2"
       cx="30.10708"
       cy="42.549583"
       fx="30.10708"
       fy="42.549583"
       r="12.909165"
       gradientTransform="matrix(1,0,0,0.94930025,0,2.1572533)"
       gradientUnits="userSpaceOnUse" />
    <radialGradient
       xlink:href="#linearGradient4705"
       id="radialGradient4756-3"
       cx="30.10708"
       cy="42.549583"
       fx="30.10708"
       fy="42.549583"
       r="12.909165"
       gradientTransform="matrix(1,0,0,0.94930025,0,2.1572533)"
       gradientUnits="userSpaceOnUse" />
    <radialGradient
       xlink:href="#linearGradient4705"
       id="radialGradient4764-7"
       cx="30.10708"
       cy="42.549583"
       fx="30.10708"
       fy="42.549583"
       r="12.909165"
       gradientTransform="matrix(1,0,0,0.94930025,0,2.1572533)"
       gradientUnits="userSpaceOnUse" />
    <linearGradient
       gradientUnits="userSpaceOnUse"
       y2="247.83893"
       x2="105.526"
       y1="175.78207"
       x1="105.526"
       id="linearGradient5453"
       xlink:href="#linearGradient5465" />
    <linearGradient
       gradientTransform="matrix(0.99250007,0,0,1.0000003,-7.2924201e-6,-6.4792399e-5)"
       gradientUnits="userSpaceOnUse"
       y2="339.33334"
       x2="103.96725"
       y1="254.6667"
       x1="103.96725"
       id="linearGradient5477"
       xlink:href="#linearGradient5475" />
    <linearGradient
       gradientTransform="translate(-13.229159,9.2604133)"
       gradientUnits="userSpaceOnUse"
       y2="273.18756"
       x2="76.729164"
       y1="252.02089"
       x1="76.729164"
       id="linearGradient5519"
       xlink:href="#linearGradient5645" />
    <linearGradient
       gradientUnits="userSpaceOnUse"
       y2="273.18756"
       x2="76.729164"
       y1="252.02089"
       x1="76.729164"
       id="linearGradient5519-3"
       xlink:href="#linearGradient5645"
       gradientTransform="translate(-13.229163,-3.9687507)" />
    <linearGradient
       gradientUnits="userSpaceOnUse"
       y2="273.18756"
       x2="76.729164"
       y1="252.02089"
       x1="76.729164"
       id="linearGradient5519-3-9"
       xlink:href="#linearGradient5645"
       gradientTransform="translate(-13.229156,-17.197927)" />
    <linearGradient
       gradientUnits="userSpaceOnUse"
       y2="273.18756"
       x2="76.729164"
       y1="252.02089"
       x1="76.729164"
       id="linearGradient5519-3-9-0"
       xlink:href="#linearGradient5645"
       gradientTransform="translate(-13.229154,-30.427097)" />
    <radialGradient
       gradientUnits="userSpaceOnUse"
       gradientTransform="matrix(4.529412,1.7977884e-7,-3.8013324e-8,0.7058823,-238.12501,69.655974)"
       r="22.489582"
       fy="200.2522"
       fx="67.46875"
       cy="200.2522"
       cx="67.46875"
       id="radialGradient5647"
       xlink:href="#linearGradient5475" />
    <linearGradient
       gradientUnits="userSpaceOnUse"
       y2="290.38547"
       x2="5.2916665"
       y1="265.25006"
       x1="-3.96875"
       id="linearGradient5762"
       xlink:href="#linearGradient5645" />
    <linearGradient
       gradientUnits="userSpaceOnUse"
       y2="365.79172"
       x2="-481.54166"
       y1="241.43755"
       x1="203.72917"
       id="linearGradient5770"
       xlink:href="#linearGradient5475" />
    <linearGradient
       gradientUnits="userSpaceOnUse"
       y2="275.83337"
       x2="-105.83334"
       y1="254.66672"
       x1="121.70834"
       id="linearGradient5778"
       xlink:href="#linearGradient5784" />
    <linearGradient
       gradientUnits="userSpaceOnUse"
       y2="275.83337"
       x2="-105.83334"
       y1="254.66672"
       x1="121.70834"
       id="linearGradient5778-9"
       xlink:href="#linearGradient5784"
       gradientTransform="matrix(-1,0,0,1,137.58334,-3.3333334e-6)" />
    <linearGradient
       gradientUnits="userSpaceOnUse"
       y2="290.38547"
       x2="5.2916665"
       y1="265.25006"
       x1="-3.96875"
       id="linearGradient5762-6"
       xlink:href="#linearGradient5645"
       gradientTransform="matrix(-1,0,0,1,137.58334,-3.3333334e-6)" />
    <linearGradient
       gradientUnits="userSpaceOnUse"
       y2="365.79172"
       x2="-481.54166"
       y1="241.43755"
       x1="203.72917"
       id="linearGradient5770-9"
       xlink:href="#linearGradient5475"
       gradientTransform="matrix(-1,0,0,1,137.58334,-3.3333334e-6)" />
    <clipPath
       id="clipPath4688"
       clipPathUnits="userSpaceOnUse">
      <rect
         y="144.47084"
         x="-32.962753"
         height="156.71611"
         width="270.50562"
         id="rect4690"
         style="opacity:1;fill:url(#radialGradient4692);fill-opacity:1;stroke:none;stroke-width:0.03602068;stroke-linecap:butt;stroke-linejoin:miter;stroke-miterlimit:4;stroke-dasharray:none;stroke-dashoffset:0;stroke-opacity:1" />
    </clipPath>
  </defs>
  <metadata
     id="metadata5">
    <rdf:RDF>
      <cc:Work
         rdf:about="">
        <dc:format>image/svg+xml</dc:format>
        <dc:type
           rdf:resource="http://purl.org/dc/dcmitype/StillImage" />
        <dc:title></dc:title>
      </cc:Work>
    </rdf:RDF>
  </metadata>
  <g
     transform="translate(0,-175.29172)"
     id="layer1">
    <rect
       y="175.2917"
       x="2.9309888e-14"
       height="121.70834"
       width="210.07916"
       id="rect4659"
       style="opacity:1;fill:url(#linearGradient5453);fill-opacity:1;stroke:none;stroke-width:0.02797426;stroke-linecap:butt;stroke-linejoin:miter;stroke-miterlimit:4;stroke-dasharray:none;stroke-dashoffset:0;stroke-opacity:1" />
    <rect
       ry="8.4288195e-06"
       y="265.25006"
       x="-7.2922503e-06"
       height="31.75"
       width="210.07916"
       id="rect5469"
       style="opacity:1;fill:url(#linearGradient5477);fill-opacity:1;stroke:none;stroke-width:0.02275507;stroke-linecap:butt;stroke-linejoin:miter;stroke-miterlimit:4;stroke-dasharray:none;stroke-dashoffset:0;stroke-opacity:0.98936169" />
    <path
       id="path5511-2-7-6-6"
       d="m 44.979167,213.6563 -10e-7,15.875 c 11.906251,5.29167 33.072896,5.29167 44.979154,0 l 1.3e-5,-15.875 c -10.583333,-3.96875 -34.395833,-3.96875 -44.979166,0 z"
       style="fill:url(#radialGradient5647);fill-opacity:1;fill-rule:evenodd;stroke:none;stroke-width:0.26458332px;stroke-linecap:butt;stroke-linejoin:miter;stroke-opacity:1" />
    <path
       id="path5511-2-7-6"
       d="m 42.333342,226.88546 -1e-6,15.875 c 11.906251,5.29167 38.364562,5.29166 50.27082,-1e-5 l 6e-6,-18.52081 h -2.645834 c -9.260424,5.29168 -35.71875,5.29166 -44.979157,2.64582 z"
       style="fill:url(#linearGradient5519-3-9-0);fill-opacity:1;fill-rule:evenodd;stroke:none;stroke-width:0.26458332px;stroke-linecap:butt;stroke-linejoin:miter;stroke-opacity:1" />
    <path
       id="path5511-2-7"
       d="m 39.687507,240.11463 -10e-7,15.875 c 11.906251,5.29167 43.656225,5.29166 55.562485,-1e-5 l 9e-6,-19.84373 h -2.645833 c -9.260421,6.61459 -41.010417,7.9375 -50.270826,3.96874 z"
       style="fill:url(#linearGradient5519-3-9);fill-opacity:1;fill-rule:evenodd;stroke:none;stroke-width:0.26458332px;stroke-linecap:butt;stroke-linejoin:miter;stroke-opacity:1" />
    <path
       id="path5754"
       d="M 62.177083,265.25005 56.885417,269.2188 0,285.0938 c 0,1.32292 0,-13.22916 0,-13.22916 z"
       style="fill:url(#linearGradient5770);fill-opacity:1;fill-rule:evenodd;stroke:none;stroke-width:0.26458332px;stroke-linecap:butt;stroke-linejoin:miter;stroke-opacity:1" />
    <path
       id="path5740"
       d="M -1.1133663e-6,291.04693 68.791666,265.25005 0.00508727,284.01003"
       style="fill:url(#linearGradient5762);fill-opacity:1;fill-rule:evenodd;stroke:none;stroke-width:0.26458332px;stroke-linecap:butt;stroke-linejoin:miter;stroke-opacity:1" />
    <path
       id="path5744"
       d="M 68.791666,265.25005 0.00106378,272.4282 C 0,272.3938 0,265.25005 0,265.25005 Z"
       style="fill:url(#linearGradient5778);fill-opacity:1;fill-rule:evenodd;stroke:none;stroke-width:0.26458332px;stroke-linecap:butt;stroke-linejoin:miter;stroke-opacity:1" />
    <path
       id="path5754-9"
       d="m 75.40626,265.25005 5.29166,3.96875 101.86458,27.78125 h 27.51667 v -18.52083 z"
       style="fill:url(#linearGradient5770-9);fill-opacity:1;fill-rule:evenodd;stroke:none;stroke-width:0.26458332px;stroke-linecap:butt;stroke-linejoin:miter;stroke-opacity:1" />
    <path
       id="path5744-7"
       d="m 68.79167,265.25005 141.28865,14.74316 -0.001,-14.74316 z"
       style="fill:url(#linearGradient5778-9);fill-opacity:1;fill-rule:evenodd;stroke:none;stroke-width:0.26458332px;stroke-linecap:butt;stroke-linejoin:miter;stroke-opacity:1" />
    <path
       id="path5740-4"
       d="m 153.45834,297.00005 -84.66667,-31.75 116.41667,31.75 h -31.75"
       style="fill:url(#linearGradient5762-6);fill-opacity:1;fill-rule:evenodd;stroke:none;stroke-width:0.26458332px;stroke-linecap:butt;stroke-linejoin:miter;stroke-opacity:1" />
    <path
       id="path5511-2"
       d="m 37.041668,253.3438 -1e-6,15.875 c 11.906251,5.29167 48.947905,5.29166 60.854164,-10e-6 v -21.16666 h -2.64582 c -9.260428,6.61459 -46.302094,9.26042 -55.562509,5.29167 z"
       style="fill:url(#linearGradient5519-3);fill-opacity:1;fill-rule:evenodd;stroke:none;stroke-width:0.26458332px;stroke-linecap:butt;stroke-linejoin:miter;stroke-opacity:1" />
    <path
       id="path5511"
       d="m 34.395841,266.57296 -10e-7,15.875 c 11.906251,5.29167 54.239581,5.29167 66.14583,0 V 261.2813 h -2.645829 c -9.26042,7.9375 -51.593749,10.58332 -60.854166,5.29166 z"
       style="fill:url(#linearGradient5519);fill-opacity:1;fill-rule:evenodd;stroke:none;stroke-width:0.26458332px;stroke-linecap:butt;stroke-linejoin:miter;stroke-opacity:1" />
    <g
       clip-path="url(#clipPath4688)"
       transform="matrix(0.77661664,0,0,0.77661664,31.030502,69.855028)"
       id="g4636">
      <path
         style="opacity:1;fill:#4063ad;fill-opacity:1;fill-rule:evenodd;stroke:none;stroke-width:0.26458332px;stroke-linecap:butt;stroke-linejoin:miter;stroke-opacity:1"
         d="m 131.80543,157.33241 c -7.14375,-1e-5 -13.22917,6.08542 -13.22917,13.22917 0,7.14375 6.08542,13.22917 13.22917,13.22917 7.14375,0 13.22916,-6.08542 13.22916,-13.22917 0,-7.14375 -6.08541,-13.22917 -13.22916,-13.22917 z"
         id="path4551-7-3" />
      <path
         style="opacity:1;fill:#26bd1e;fill-opacity:1;fill-rule:evenodd;stroke:none;stroke-width:0.16944075px;stroke-linecap:butt;stroke-linejoin:miter;stroke-opacity:1"
         d="m 131.80543,162.08953 c -4.57491,-1e-5 -8.47204,3.89714 -8.47204,8.47204 0,4.5749 3.89713,8.47204 8.47204,8.47204 4.5749,0 8.47203,-3.89714 8.47203,-8.47204 0,-4.5749 -3.89713,-8.47204 -8.47203,-8.47204 z"
         id="path4551-2-0" />
      <path
         id="path4649-5-6"
         d="m 211.70953,149.39491 c -1.32292,0 -2.38125,1.05833 -2.38125,2.38125 0,1.32292 1.05833,2.38125 2.38125,2.38125 1.32291,0 2.38125,-1.05833 2.38125,-2.38125 0,-1.32292 -1.05834,-2.38125 -2.38125,-2.38125 z"
         style="fill:#26bd1e;fill-opacity:1;fill-rule:evenodd;stroke:none;stroke-width:0.26458332px;stroke-linecap:butt;stroke-linejoin:miter;stroke-opacity:1" />
      <path
         id="path4649-5-2-75"
         d="m 211.70953,157.33241 c -1.32292,0 -2.38125,1.05833 -2.38125,2.38125 v 21.69583 c 0,1.32292 1.14626,2.38125 2.38125,2.38125 1.2345,0 2.38125,-1.05833 2.38125,-2.38125 v -21.69583 c 0,-1.32292 -1.05834,-2.38125 -2.38125,-2.38125 z"
         style="fill:#26bd1e;fill-opacity:1;fill-rule:evenodd;stroke:none;stroke-width:0.26458332px;stroke-linecap:butt;stroke-linejoin:miter;stroke-opacity:1" />
      <path
         style="fill:#26bd1e;fill-opacity:1;fill-rule:evenodd;stroke:none;stroke-width:0.26458332px;stroke-linecap:butt;stroke-linejoin:miter;stroke-opacity:1"
         d="m 161.9372,157.33245 c -8.7297,4e-5 -12.94213,7.19671 -12.96458,13.16246 -1e-4,0.0223 -0.002,0.0443 -0.002,0.0667 0.003,7.13845 0.002,14.28861 0.002,21.43125 0,1.32292 1.14626,2.38125 2.38125,2.38125 1.2345,0 2.38125,-1.05833 2.38125,-2.38125 v -11.37759 c 2.31708,1.96801 5.02076,3.17551 8.20053,3.17551 7.14375,0 13.23651,-6.1088 13.23651,-13.25255 0,-7.14375 -6.09121,-13.20574 -13.23496,-13.20574 z m 0,4.76246 c 4.49792,4e-5 8.59094,3.96879 8.59094,8.46667 0,4.49796 -4.09302,8.46671 -8.59094,8.46666 -4.49791,5e-5 -8.20208,-3.9687 -8.20208,-8.46666 0,-4.49788 3.70417,-8.46663 8.20208,-8.46667 z"
         id="path4649-5-2-7-3" />
      <path
         style="fill:#26bd1e;fill-opacity:1;fill-rule:evenodd;stroke:none;stroke-width:0.26458332px;stroke-linecap:butt;stroke-linejoin:miter;stroke-opacity:1"
         d="m 192.06425,157.33245 c -8.72968,4e-5 -12.94211,7.1967 -12.96456,13.16246 -1e-4,0.0223 -0.002,0.0443 -0.002,0.0667 0.003,7.13845 0.002,14.28861 0.002,21.43125 0,1.32292 1.14626,2.38125 2.38125,2.38125 1.2345,0 2.38125,-1.05833 2.38125,-2.38125 v -11.3776 c 2.31708,1.96802 5.02076,3.17552 8.20051,3.17552 7.14372,0 13.23647,-6.1088 13.23647,-13.25255 0,-7.14375 -6.0912,-13.20574 -13.23492,-13.20574 z m 0,4.76246 c 4.4979,4e-5 8.59089,3.96879 8.59089,8.46666 0,4.49796 -4.09299,8.46671 -8.59089,8.46667 -4.49789,4e-5 -8.20206,-3.96871 -8.20206,-8.46667 0,-4.49787 3.70417,-8.46662 8.20206,-8.46666 z"
         id="path4649-5-2-7-6-5" />
    </g>
  </g>
</svg>
