<?xml version="1.0" encoding="UTF-8" standalone="no"?>
<svg
   xmlns:dc="http://purl.org/dc/elements/1.1/"
   xmlns:cc="http://creativecommons.org/ns#"
   xmlns:rdf="http://www.w3.org/1999/02/22-rdf-syntax-ns#"
   xmlns:svg="http://www.w3.org/2000/svg"
   xmlns="http://www.w3.org/2000/svg"
   xmlns:xlink="http://www.w3.org/1999/xlink"
   id="svg8"
   version="1.1"
   viewBox="0 0 210.07916 121.70834"
   height="460"
   width="794">
  <defs
     id="defs2">
    <linearGradient
       id="linearGradient5784">
      <stop
         style="stop-color:#63de5d;stop-opacity:1;"
         offset="0"
         id="stop5780" />
      <stop
         style="stop-color:#26bd1e;stop-opacity:0.98823529"
         offset="1"
         id="stop5782" />
    </linearGradient>
    <linearGradient
       id="linearGradient5645">
      <stop
         id="stop5641"
         offset="0"
         style="stop-color:#ffbf41;stop-opacity:1" />
      <stop
         id="stop5643"
         offset="1"
         style="stop-color:#ffb118;stop-opacity:1" />
    </linearGradient>
    <linearGradient
       id="linearGradient5475">
      <stop
         id="stop5471"
         offset="0"
         style="stop-color:#ffdc98;stop-opacity:1" />
      <stop
         id="stop5473"
         offset="1"
         style="stop-color:#ffb118;stop-opacity:1" />
    </linearGradient>
    <linearGradient
       id="linearGradient5465">
      <stop
         id="stop5461"
         offset="0"
         style="stop-color:#71a3ff;stop-opacity:1" />
      <stop
         id="stop5463"
         offset="1"
         style="stop-color:#347cff;stop-opacity:1" />
    </linearGradient>
    <marker
       style="overflow:visible"
       id="marker5453"
       refX="0.0"
       refY="0.0"
       orient="auto">
      <path
         transform="scale(0.8) translate(12.5,0)"
         style="fill-rule:evenodd;stroke:#000000;stroke-width:1.0pt"
         d="M 0.0,0.0 L 5.0,-5.0 L -12.5,0.0 L 5.0,5.0 L 0.0,0.0 z "
         id="path5451" />
    </marker>
    <marker
       style="overflow:visible"
       id="marker5425"
       refX="0.0"
       refY="0.0"
       orient="auto">
      <path
         transform="scale(0.8) translate(12.5,0)"
         style="fill-rule:evenodd;stroke:#000000;stroke-width:1.0pt"
         d="M 0.0,0.0 L 5.0,-5.0 L -12.5,0.0 L 5.0,5.0 L 0.0,0.0 z "
         id="path5423" />
    </marker>
    <marker
       style="overflow:visible"
       id="Arrow1Mstart"
       refX="0.0"
       refY="0.0"
       orient="auto">
      <path
         transform="scale(0.4) translate(10,0)"
         style="fill-rule:evenodd;stroke:#000000;stroke-width:1.0pt"
         d="M 0.0,0.0 L 5.0,-5.0 L -12.5,0.0 L 5.0,5.0 L 0.0,0.0 z "
         id="path5143" />
    </marker>
    <marker
       style="overflow:visible;"
       id="Arrow1Lend"
       refX="0.0"
       refY="0.0"
       orient="auto">
      <path
         transform="scale(0.8) rotate(180) translate(12.5,0)"
         style="fill-rule:evenodd;stroke:#000000;stroke-width:1.0pt;"
         d="M 0.0,0.0 L 5.0,-5.0 L -12.5,0.0 L 5.0,5.0 L 0.0,0.0 z "
         id="path5140" />
    </marker>
    <marker
       style="overflow:visible"
       id="Arrow1Lstart"
       refX="0.0"
       refY="0.0"
       orient="auto">
      <path
         transform="scale(0.8) translate(12.5,0)"
         style="fill-rule:evenodd;stroke:#000000;stroke-width:1.0pt"
         d="M 0.0,0.0 L 5.0,-5.0 L -12.5,0.0 L 5.0,5.0 L 0.0,0.0 z "
         id="path5137" />
    </marker>
    <linearGradient
       id="linearGradient4705">
      <stop
         style="stop-color:#63de5d;stop-opacity:1;"
         offset="0"
         id="stop4701" />
      <stop
         style="stop-color:#26bd1e;stop-opacity:1"
         offset="1"
         id="stop4703" />
    </linearGradient>
    <radialGradient
       xlink:href="#linearGradient4705"
       id="radialGradient4724"
       cx="30.10708"
       cy="42.549583"
       fx="30.10708"
       fy="42.549583"
       r="12.909165"
       gradientTransform="matrix(1,0,0,0.94930025,0,2.1572533)"
       gradientUnits="userSpaceOnUse" />
    <radialGradient
       xlink:href="#linearGradient4705"
       id="radialGradient4732"
       cx="30.10708"
       cy="42.549583"
       fx="30.10708"
       fy="42.549583"
       r="12.909165"
       gradientTransform="matrix(1,0,0,0.94930025,0,2.1572533)"
       gradientUnits="userSpaceOnUse" />
    <radialGradient
       xlink:href="#linearGradient4705"
       id="radialGradient4740"
       cx="30.10708"
       cy="42.549583"
       fx="30.10708"
       fy="42.549583"
       r="12.909165"
       gradientTransform="matrix(1,0,0,0.94930025,0,2.1572533)"
       gradientUnits="userSpaceOnUse" />
    <radialGradient
       xlink:href="#linearGradient4705"
       id="radialGradient4748"
       cx="30.10708"
       cy="42.549583"
       fx="30.10708"
       fy="42.549583"
       r="12.909165"
       gradientTransform="matrix(1,0,0,0.94930025,0,2.1572533)"
       gradientUnits="userSpaceOnUse" />
    <radialGradient
       xlink:href="#linearGradient4705"
       id="radialGradient4756"
       cx="30.10708"
       cy="42.549583"
       fx="30.10708"
       fy="42.549583"
       r="12.909165"
       gradientTransform="matrix(1,0,0,0.94930025,0,2.1572533)"
       gradientUnits="userSpaceOnUse" />
    <radialGradient
       xlink:href="#linearGradient4705"
       id="radialGradient4764"
       cx="30.10708"
       cy="42.549583"
       fx="30.10708"
       fy="42.549583"
       r="12.909165"
       gradientTransform="matrix(1,0,0,0.94930025,0,2.1572533)"
       gradientUnits="userSpaceOnUse" />
    <radialGradient
       xlink:href="#linearGradient4705"
       id="radialGradient4724-9"
       cx="30.10708"
       cy="42.549583"
       fx="30.10708"
       fy="42.549583"
       r="12.909165"
       gradientTransform="matrix(1,0,0,0.94930025,0,2.1572533)"
       gradientUnits="userSpaceOnUse" />
    <radialGradient
       xlink:href="#linearGradient4705"
       id="radialGradient4732-2"
       cx="30.10708"
       cy="42.549583"
       fx="30.10708"
       fy="42.549583"
       r="12.909165"
       gradientTransform="matrix(1,0,0,0.94930025,0,2.1572533)"
       gradientUnits="userSpaceOnUse" />
    <radialGradient
       xlink:href="#linearGradient4705"
       id="radialGradient4740-0"
       cx="30.10708"
       cy="42.549583"
       fx="30.10708"
       fy="42.549583"
       r="12.909165"
       gradientTransform="matrix(1,0,0,0.94930025,0,2.1572533)"
       gradientUnits="userSpaceOnUse" />
    <radialGradient
       xlink:href="#linearGradient4705"
       id="radialGradient4748-2"
       cx="30.10708"
       cy="42.549583"
       fx="30.10708"
       fy="42.549583"
       r="12.909165"
       gradientTransform="matrix(1,0,0,0.94930025,0,2.1572533)"
       gradientUnits="userSpaceOnUse" />
    <radialGradient
       xlink:href="#linearGradient4705"
       id="radialGradient4756-3"
       cx="30.10708"
       cy="42.549583"
       fx="30.10708"
       fy="42.549583"
       r="12.909165"
       gradientTransform="matrix(1,0,0,0.94930025,0,2.1572533)"
       gradientUnits="userSpaceOnUse" />
    <radialGradient
       xlink:href="#linearGradient4705"
       id="radialGradient4764-7"
       cx="30.10708"
       cy="42.549583"
       fx="30.10708"
       fy="42.549583"
       r="12.909165"
       gradientTransform="matrix(1,0,0,0.94930025,0,2.1572533)"
       gradientUnits="userSpaceOnUse" />
    <linearGradient
       gradientUnits="userSpaceOnUse"
       y2="247.83893"
       x2="105.526"
       y1="175.78207"
       x1="105.526"
       id="linearGradient5453"
       xlink:href="#linearGradient5465" />
    <linearGradient
       gradientTransform="matrix(0.99250007,0,0,1.0000003,-7.2924201e-6,-6.4792399e-5)"
       gradientUnits="userSpaceOnUse"
       y2="339.33334"
       x2="103.96725"
       y1="254.6667"
       x1="103.96725"
       id="linearGradient5477"
       xlink:href="#linearGradient5475" />
    <linearGradient
       gradientTransform="translate(-13.229159,9.2604133)"
       gradientUnits="userSpaceOnUse"
       y2="273.18756"
       x2="76.729164"
       y1="252.02089"
       x1="76.729164"
       id="linearGradient5519"
       xlink:href="#linearGradient5645" />
    <linearGradient
       gradientUnits="userSpaceOnUse"
       y2="273.18756"
       x2="76.729164"
       y1="252.02089"
       x1="76.729164"
       id="linearGradient5519-3"
       xlink:href="#linearGradient5645"
       gradientTransform="translate(-13.229163,-3.9687507)" />
    <linearGradient
       gradientUnits="userSpaceOnUse"
       y2="273.18756"
       x2="76.729164"
       y1="252.02089"
       x1="76.729164"
       id="linearGradient5519-3-9"
       xlink:href="#linearGradient5645"
       gradientTransform="translate(-13.229156,-17.197927)" />
    <linearGradient
       gradientUnits="userSpaceOnUse"
       y2="273.18756"
       x2="76.729164"
       y1="252.02089"
       x1="76.729164"
       id="linearGradient5519-3-9-0"
       xlink:href="#linearGradient5645"
       gradientTransform="translate(-13.229154,-30.427097)" />
    <radialGradient
       gradientUnits="userSpaceOnUse"
       gradientTransform="matrix(4.529412,1.7977884e-7,-3.8013324e-8,0.7058823,-238.12501,69.655974)"
       r="22.489582"
       fy="200.2522"
       fx="67.46875"
       cy="200.2522"
       cx="67.46875"
       id="radialGradient5647"
       xlink:href="#linearGradient5475" />
    <linearGradient
       gradientUnits="userSpaceOnUse"
       y2="290.38547"
       x2="5.2916665"
       y1="265.25006"
       x1="-3.96875"
       id="linearGradient5762"
       xlink:href="#linearGradient5645" />
    <linearGradient
       gradientUnits="userSpaceOnUse"
       y2="365.79172"
       x2="-481.54166"
       y1="241.43755"
       x1="203.72917"
       id="linearGradient5770"
       xlink:href="#linearGradient5475" />
    <linearGradient
       gradientUnits="userSpaceOnUse"
       y2="275.83337"
       x2="-105.83334"
       y1="254.66672"
       x1="121.70834"
       id="linearGradient5778"
       xlink:href="#linearGradient5784" />
    <linearGradient
       gradientUnits="userSpaceOnUse"
       y2="275.83337"
       x2="-105.83334"
       y1="254.66672"
       x1="121.70834"
       id="linearGradient5778-9"
       xlink:href="#linearGradient5784"
       gradientTransform="matrix(-1,0,0,1,137.58334,-3.3333334e-6)" />
    <linearGradient
       gradientUnits="userSpaceOnUse"
       y2="290.38547"
       x2="5.2916665"
       y1="265.25006"
       x1="-3.96875"
       id="linearGradient5762-6"
       xlink:href="#linearGradient5645"
       gradientTransform="matrix(-1,0,0,1,137.58334,-3.3333334e-6)" />
    <linearGradient
       gradientUnits="userSpaceOnUse"
       y2="365.79172"
       x2="-481.54166"
       y1="241.43755"
       x1="203.72917"
       id="linearGradient5770-9"
       xlink:href="#linearGradient5475"
       gradientTransform="matrix(-1,0,0,1,137.58334,-3.3333334e-6)" />
    <clipPath
       id="clipPath4688"
       clipPathUnits="userSpaceOnUse">
      <rect
         y="144.47084"
         x="-32.962753"
         height="156.71611"
         width="270.50562"
         id="rect4690"
         style="opacity:1;fill:url(#radialGradient4692);fill-opacity:1;stroke:none;stroke-width:0.03602068;stroke-linecap:butt;stroke-linejoin:miter;stroke-miterlimit:4;stroke-dasharray:none;stroke-dashoffset:0;stroke-opacity:1" />
    </clipPath>
  </defs>
  <metadata
     id="metadata5">
    <rdf:RDF>
      <cc:Work
         rdf:about="">
        <dc:format>image/svg+xml</dc:format>
        <dc:type
           rdf:resource="http://purl.org/dc/dcmitype/StillImage" />
        <dc:title></dc:title>
      </cc:Work>
    </rdf:RDF>
  </metadata>
  <g
     transform="translate(0,-175.29172)"
     id="layer1">
    <rect
       y="175.2917"
       x="2.9309888e-14"
       height="121.70834"
       width="210.07916"
       id="rect4659"
       style="opacity:1;fill:url(#linearGradient5453);fill-opacity:1;stroke:none;stroke-width:0.02797426;stroke-linecap:butt;stroke-linejoin:miter;stroke-miterlimit:4;stroke-dasharray:none;stroke-dashoffset:0;stroke-opacity:1" />
    <rect
       ry="8.4288195e-06"
       y="265.25006"
       x="-7.2922503e-06"
       height="31.75"
       width="210.07916"
       id="rect5469"
       style="opacity:1;fill:url(#linearGradient5477);fill-opacity:1;stroke:none;stroke-width:0.02275507;stroke-linecap:butt;stroke-linejoin:miter;stroke-miterlimit:4;stroke-dasharray:none;stroke-dashoffset:0;stroke-opacity:0.98936169" />
    <path
       id="path5511-2-7-6-6"
       d="m 44.979167,213.6563 -10e-7,15.875 c 11.906251,5.29167 33.072896,5.29167 44.979154,0 l 1.3e-5,-15.875 c -10.583333,-3.96875 -34.395833,-3.96875 -44.979166,0 z"
       style="fill:url(#radialGradient5647);fill-opacity:1;fill-rule:evenodd;stroke:none;stroke-width:0.26458332px;stroke-linecap:butt;stroke-linejoin:miter;stroke-opacity:1" />
    <path
       id="path5511-2-7-6"
       d="m 42.333342,226.88546 -1e-6,15.875 c 11.906251,5.29167 38.364562,5.29166 50.27082,-1e-5 l 6e-6,-18.52081 h -2.645834 c -9.260424,5.29168 -35.71875,5.29166 -44.979157,2.64582 z"
       style="fill:url(#linearGradient5519-3-9-0);fill-opacity:1;fill-rule:evenodd;stroke:none;stroke-width:0.26458332px;stroke-linecap:butt;stroke-linejoin:miter;stroke-opacity:1" />
    <path
       id="path5511-2-7"
       d="m 39.687507,240.11463 -10e-7,15.875 c 11.906251,5.29167 43.656225,5.29166 55.562485,-1e-5 l 9e-6,-19.84373 h -2.645833 c -9.260421,6.61459 -41.010417,7.9375 -50.270826,3.96874 z"
       style="fill:url(#linearGradient5519-3-9);fill-opacity:1;fill-rule:evenodd;stroke:none;stroke-width:0.26458332px;stroke-linecap:butt;stroke-linejoin:miter;stroke-opacity:1" />
    <path
       id="path5754"
       d="M 62.177083,265.25005 56.885417,269.2188 0,285.0938 c 0,1.32292 0,-13.22916 0,-13.22916 z"
       style="fill:url(#linearGradient5770);fill-opacity:1;fill-rule:evenodd;stroke:none;stroke-width:0.26458332px;stroke-linecap:butt;stroke-linejoin:miter;stroke-opacity:1" />
    <path
       id="path5740"
       d="M -1.1133663e-6,291.04693 68.791666,265.25005 0.00508727,284.01003"
       style="fill:url(#linearGradient5762);fill-opacity:1;fill-rule:evenodd;stroke:none;stroke-width:0.26458332px;stroke-linecap:butt;stroke-linejoin:miter;stroke-opacity:1" />
    <path
       id="path5744"
       d="M 68.791666,265.25005 0.00106378,272.4282 C 0,272.3938 0,265.25005 0,265.25005 Z"
       style="fill:url(#linearGradient5778);fill-opacity:1;fill-rule:evenodd;stroke:none;stroke-width:0.26458332px;stroke-linecap:butt;stroke-linejoin:miter;stroke-opacity:1" />
    <path
       id="path5754-9"
       d="m 75.40626,265.25005 5.29166,3.96875 101.86458,27.78125 h 27.51667 v -18.52083 z"
       style="fill:url(#linearGradient5770-9);fill-opacity:1;fill-rule:evenodd;stroke:none;stroke-width:0.26458332px;stroke-linecap:butt;stroke-linejoin:miter;stroke-opacity:1" />
    <path
       id="path5744-7"
       d="m 68.79167,265.25005 141.28865,14.74316 -0.001,-14.74316 z"
       style="fill:url(#linearGradient5778-9);fill-opacity:1;fill-rule:evenodd;stroke:none;stroke-width:0.26458332px;stroke-linecap:butt;stroke-linejoin:miter;stroke-opacity:1" />
    <path
       id="path5740-4"
       d="m 153.45834,297.00005 -84.66667,-31.75 116.41667,31.75 h -31.75"
       style="fill:url(#linearGradient5762-6);fill-opacity:1;fill-rule:evenodd;stroke:none;stroke-width:0.26458332px;stroke-linecap:butt;stroke-linejoin:miter;stroke-opacity:1" />
    <path
       id="path5511-2"
       d="m 37.041668,253.3438 -1e-6,15.875 c 11.906251,5.29167 48.947905,5.29166 60.854164,-10e-6 v -21.16666 h -2.64582 c -9.260428,6.61459 -46.302094,9.26042 -55.562509,5.29167 z"
       style="fill:url(#linearGradient5519-3);fill-opacity:1;fill-rule:evenodd;stroke:none;stroke-width:0.26458332px;stroke-linecap:butt;stroke-linejoin:miter;stroke-opacity:1" />
    <path
       id="path5511"
       d="m 34.395841,266.57296 -10e-7,15.875 c 11.906251,5.29167 54.239581,5.29167 66.14583,0 V 261.2813 h -2.645829 c -9.26042,7.9375 -51.593749,10.58332 -60.854166,5.29166 z"
       style="fill:url(#linearGradient5519);fill-opacity:1;fill-rule:evenodd;stroke:none;stroke-width:0.26458332px;stroke-linecap:butt;stroke-linejoin:miter;stroke-opacity:1" />
    <path
       id="path4551-7-3"
       d="m 133.39279,192.042 c -5.54795,-1e-5 -10.27399,4.72603 -10.27399,10.27399 0,5.54795 4.72604,10.27399 10.27399,10.27399 5.54796,0 10.27399,-4.72604 10.27399,-10.27399 0,-5.54796 -4.72603,-10.27399 -10.27399,-10.27399 z"
       style="opacity:1;fill:#4063ad;fill-opacity:1;fill-rule:evenodd;stroke:none;stroke-width:0.20547982px;stroke-linecap:butt;stroke-linejoin:miter;stroke-opacity:1" />
    <path
       id="path4551-2-0"
       d="m 133.39279,195.73645 c -3.55295,0 -6.57953,3.02659 -6.57953,6.57953 0,3.55294 3.02658,6.57953 6.57953,6.57953 3.55295,0 6.57952,-3.02659 6.57952,-6.57953 0,-3.55294 -3.02657,-6.57953 -6.57952,-6.57953 z"
       style="opacity:1;fill:#6eda68;fill-opacity:1;fill-rule:evenodd;stroke:none;stroke-width:0.1315905px;stroke-linecap:butt;stroke-linejoin:miter;stroke-opacity:1" />
    <path
       style="fill:#6eda68;fill-opacity:1;fill-rule:evenodd;stroke:none;stroke-width:0.20547982px;stroke-linecap:butt;stroke-linejoin:miter;stroke-opacity:1"
       d="m 195.44765,185.8776 c -1.02741,0 -1.84932,0.82192 -1.84932,1.84932 0,1.0274 0.82191,1.84932 1.84932,1.84932 1.02739,0 1.84931,-0.82192 1.84931,-1.84932 0,-1.0274 -0.82192,-1.84932 -1.84931,-1.84932 z"
       id="path4649-5-6" />
    <path
       style="fill:#6eda68;fill-opacity:1;fill-rule:evenodd;stroke:none;stroke-width:0.20547982px;stroke-linecap:butt;stroke-linejoin:miter;stroke-opacity:1"
       d="m 195.44765,192.042 c -1.02741,0 -1.84932,0.82191 -1.84932,1.84931 v 16.84935 c 0,1.0274 0.8902,1.84931 1.84932,1.84931 0.95873,0 1.84931,-0.82191 1.84931,-1.84931 v -16.84935 c 0,-1.0274 -0.82192,-1.84931 -1.84931,-1.84931 z"
       id="path4649-5-2-75" />
    <path
       id="path4649-5-2-7-3"
       d="m 156.79363,192.04203 c -6.77963,3e-5 -10.05108,5.58908 -10.06851,10.22218 -8e-5,0.0173 -0.002,0.0344 -0.002,0.0518 0.002,5.54384 0.002,11.09677 0.002,16.64387 0,1.0274 0.8902,1.84932 1.84932,1.84932 0.95873,0 1.84931,-0.82192 1.84931,-1.84932 v -8.83603 c 1.79949,1.52839 3.89921,2.46616 6.36867,2.46616 5.54796,0 10.2797,-4.7442 10.2797,-10.29215 0,-5.54796 -4.73054,-10.2558 -10.27849,-10.2558 z m 0,3.6986 c 3.49316,3e-5 6.67186,3.08223 6.67186,6.57536 0,3.49319 -3.1787,6.57539 -6.67186,6.57535 -3.49316,4e-5 -6.36988,-3.08216 -6.36988,-6.57535 0,-3.49313 2.87672,-6.57533 6.36988,-6.57536 z"
       style="fill:#6eda68;fill-opacity:1;fill-rule:evenodd;stroke:none;stroke-width:0.20547982px;stroke-linecap:butt;stroke-linejoin:miter;stroke-opacity:1" />
    <path
       id="path4649-5-2-7-6-5"
       d="m 180.19079,192.04203 c -6.77961,3e-5 -10.05105,5.58907 -10.06849,10.22218 -8e-5,0.0173 -0.002,0.0344 -0.002,0.0518 0.002,5.54384 0.002,11.09677 0.002,16.64387 0,1.0274 0.89021,1.84932 1.84932,1.84932 0.95873,0 1.84932,-0.82192 1.84932,-1.84932 v -8.83604 c 1.79948,1.5284 3.8992,2.46617 6.36865,2.46617 5.54793,0 10.27966,-4.7442 10.27966,-10.29215 0,-5.54796 -4.73052,-10.2558 -10.27846,-10.2558 z m 0,3.6986 c 3.49315,3e-5 6.67183,3.08223 6.67183,6.57535 0,3.49319 -3.17868,6.57539 -6.67183,6.57536 -3.49313,3e-5 -6.36985,-3.08217 -6.36985,-6.57536 0,-3.49312 2.87672,-6.57532 6.36985,-6.57535 z"
       style="fill:#6eda68;fill-opacity:1;fill-rule:evenodd;stroke:none;stroke-width:0.20547982px;stroke-linecap:butt;stroke-linejoin:miter;stroke-opacity:1" />
  </g>
</svg>
